<svg version="1.1" id="Layer_1" xmlns="http://www.w3.org/2000/svg" xmlns:xlink="http://www.w3.org/1999/xlink" x="0px" y="0px"
	 width="100%" viewBox="0 0 517 520" enable-background="new 0 0 517 520" xml:space="preserve">
<path fill="#010101" opacity="1.000000" stroke="none" 
	d="
M518.000000,196.000000 
	C518.000000,304.640594 518.000000,412.781158 518.000000,520.960876 
	C345.734283,520.960876 173.468567,520.960876 1.101418,520.960876 
	C1.101418,347.776123 1.101418,174.552139 1.101418,1.164089 
	C173.333206,1.164089 345.666595,1.164089 518.000000,1.164089 
	C518.000000,65.864723 518.000000,130.682358 518.000000,196.000000 
M332.686707,245.026825 
	C333.293152,244.736160 333.899567,244.445511 335.227905,244.066711 
	C342.300507,241.460037 349.373138,238.853378 357.185730,236.198944 
	C360.686829,234.859695 364.187927,233.520432 368.152527,232.351883 
	C368.500397,232.319016 368.784149,232.166718 369.772736,231.875305 
	C384.504639,226.724335 399.225647,221.541885 413.978790,216.452515 
	C416.522461,215.575027 418.160309,214.562012 417.019867,211.466156 
	C415.821503,208.213013 413.628265,209.563904 411.718353,210.230713 
	C405.452148,212.418427 399.231476,214.736374 392.219574,217.006531 
	C373.142456,223.699982 354.065338,230.393433 334.224823,237.090714 
	C329.817444,238.489044 325.410065,239.887390 320.710510,241.378433 
	C321.589844,243.823822 322.412567,246.111877 323.327240,248.655548 
	C325.249176,247.728531 326.875763,246.943970 328.791870,246.238739 
	C328.791870,246.238739 328.991272,246.014374 329.646698,246.055145 
	C330.426910,245.702103 331.207092,245.349045 331.998169,245.002045 
	C331.998169,245.002045 332.001007,244.992493 332.686707,245.026825 
M308.837708,311.751892 
	C309.840271,313.195282 310.842804,314.638641 311.982788,316.777252 
	C317.590668,325.682892 323.198547,334.588531 328.921844,344.156433 
	C334.183594,352.572998 339.445312,360.989532 344.930542,370.051544 
	C346.700958,372.780762 348.471344,375.509949 350.494171,378.935638 
	C351.577362,380.779572 352.288361,383.107300 353.859985,384.316345 
	C355.148193,385.307404 357.460785,384.966858 359.319305,385.216614 
	C359.519409,383.514709 360.414215,381.459412 359.767578,380.188263 
	C358.604645,377.902374 356.517059,376.086853 354.626770,373.419586 
	C352.110596,370.178009 349.594391,366.936462 347.129028,362.969452 
	C343.045471,356.052582 339.000488,349.112335 334.836029,342.244507 
	C334.224030,341.235199 333.044556,340.570007 332.117493,339.009552 
	C327.177063,330.478973 322.236633,321.948364 317.123596,312.821442 
	C316.157684,311.511047 315.191772,310.200684 314.173920,308.172028 
	C313.161438,306.330475 312.148926,304.488922 311.016632,301.970154 
	C309.334778,299.158936 307.652924,296.347687 305.899048,293.416077 
	C303.694763,294.744354 301.897430,295.827393 299.713715,297.143280 
	C301.939301,300.558105 303.993927,303.710632 306.161743,307.496429 
	C307.005676,308.693054 307.849579,309.889679 308.837708,311.751892 
M189.324371,142.562149 
	C189.324371,142.562149 189.501450,142.713074 189.810135,143.250885 
	C191.177032,144.914108 192.543930,146.577316 194.078247,148.859085 
	C195.467010,150.647583 196.855789,152.436096 198.498840,154.901047 
	C210.329376,170.217148 222.159912,185.533249 234.150833,201.522079 
	C235.529266,203.332901 236.907700,205.143723 238.517792,207.561783 
	C241.293961,210.846085 244.070129,214.130402 246.974792,217.993942 
	C247.628235,218.710968 248.281677,219.427979 249.112259,220.808365 
	C251.181686,223.666290 253.251114,226.524231 254.638748,228.440567 
	C256.666168,226.704712 258.354004,225.259628 260.185089,223.691849 
	C257.971252,221.291595 255.518005,218.631760 252.899323,215.320007 
	C251.449799,213.603683 250.000275,211.887375 248.247711,209.607620 
	C245.589859,206.403915 242.931992,203.200226 240.244156,199.615509 
	C239.983398,199.371796 239.722641,199.128082 239.163635,198.240799 
	C237.591797,196.148224 236.043854,194.037170 234.444214,191.966049 
	C224.029678,178.481964 213.603912,165.006561 203.008926,150.897598 
	C201.517426,148.954269 200.025940,147.010941 198.296173,144.488495 
	C196.870987,142.661942 195.445801,140.835388 193.830688,138.335358 
	C192.141342,135.989655 190.452011,133.643951 188.724167,131.244797 
	C186.828140,132.499146 185.359085,133.471008 183.501877,134.699646 
	C185.473465,137.270981 187.243179,139.579025 189.020905,142.173615 
	C189.020905,142.173615 189.254089,142.340347 189.324371,142.562149 
M361.805664,399.155823 
	C361.805664,399.155823 361.747223,399.270905 361.813141,399.973083 
	C365.998840,406.288818 370.184540,412.604523 374.615845,419.508942 
	C377.049072,423.176849 379.482300,426.844788 382.050720,431.155457 
	C383.823364,433.634827 385.595978,436.114197 387.436829,438.688995 
	C389.186340,437.396759 390.487213,436.435944 392.164612,435.196960 
	C389.496124,431.556000 386.901367,428.015625 384.091797,423.847717 
	C382.210907,421.166229 380.330017,418.484711 378.179504,415.158203 
	C374.422455,409.121124 370.665375,403.084045 366.804596,396.356903 
	C365.645203,394.515106 364.485809,392.673309 362.612915,389.697998 
	C361.794434,393.504608 356.755371,394.422211 360.806335,398.740570 
	C361.182312,398.882782 361.558289,399.024994 361.805664,399.155823 
M153.915344,358.031006 
	C153.915344,358.031006 154.069519,357.977509 153.996887,358.830505 
	C154.907623,362.011810 155.818344,365.193085 156.792023,369.141937 
	C158.336441,375.163086 159.687180,381.244354 161.528671,387.173248 
	C162.187347,389.293884 164.032455,391.046082 164.908722,393.621490 
	C164.472092,397.268372 163.221527,401.050659 163.800140,404.528656 
	C164.562958,409.113922 169.082886,411.578125 173.603287,410.954895 
	C178.394150,410.294373 180.798416,407.337280 181.306549,402.615784 
	C182.221176,394.117249 176.240738,389.985443 166.142609,391.176147 
	C164.498505,382.761841 162.854401,374.347534 161.194366,365.164368 
	C160.321869,361.257874 158.723099,358.079163 153.915344,358.031006 
M360.770111,329.138794 
	C358.586029,326.977875 356.401917,324.816956 354.305511,321.962799 
	C347.545837,314.939148 340.786133,307.915466 333.804199,300.271698 
	C332.576141,299.011444 331.348083,297.751160 329.868958,295.911530 
	C326.977051,293.156189 324.085114,290.400818 320.928741,287.112854 
	C320.001678,286.298920 319.074646,285.484955 318.024841,284.563232 
	C316.540710,286.208099 315.299103,287.584198 313.911743,289.121826 
	C315.146881,290.191254 316.110260,291.025391 317.450897,292.411560 
	C320.696503,295.392212 323.942108,298.372894 327.509003,301.918274 
	C328.746735,303.039520 329.984436,304.160767 331.580322,305.896667 
	C338.003143,312.705627 344.425964,319.514557 351.073273,326.935669 
	C353.371002,329.301361 355.668732,331.667023 358.176239,334.667816 
	C360.148254,336.770050 362.120239,338.872253 364.328217,341.595123 
	C367.229858,344.752350 369.988098,348.062683 373.108765,350.986053 
	C374.241272,352.046875 376.239594,352.183380 377.842834,352.741638 
	C377.682709,350.850250 378.198883,348.452423 377.233887,347.163818 
	C374.490479,343.500397 371.142761,340.289581 367.801025,336.283508 
	C365.597412,334.071625 363.393768,331.859741 360.770111,329.138794 
M428.423126,317.635345 
	C426.267700,316.793793 424.112274,315.952240 421.355225,314.757477 
	C388.450073,300.355469 355.544891,285.953430 322.393707,271.443726 
	C321.534332,274.114075 320.908386,276.059113 320.195496,278.274292 
	C329.019012,282.080627 337.526215,285.833740 346.098206,289.432465 
	C369.910187,299.429413 393.749207,309.362091 418.035126,319.857849 
	C420.977020,321.096588 423.918915,322.335327 427.382385,323.951904 
	C429.863373,324.993225 432.344360,326.034546 435.357849,327.492371 
	C439.188812,329.609436 440.962860,327.819153 442.031403,323.635498 
	C440.316620,322.795898 438.633636,321.971832 436.354828,320.783844 
	C433.888428,319.877991 431.422058,318.972137 428.423126,317.635345 
M393.497406,365.082367 
	C396.911652,366.765106 400.325928,368.447876 404.169708,370.676910 
	C418.981750,378.880524 433.793793,387.084106 448.916718,395.459900 
	C449.732452,393.813293 450.337280,392.592438 451.434204,390.378357 
	C436.831421,382.438293 422.538239,374.666595 407.788116,366.341858 
	C402.849457,363.922699 397.910767,361.503571 392.349457,358.810883 
	C390.455902,356.972931 388.804443,354.708557 386.583313,353.447571 
	C385.112549,352.612579 382.825073,353.216217 380.903168,353.175812 
	C381.218994,355.239685 380.806488,358.333649 381.989929,359.170471 
	C385.276764,361.494507 389.227448,362.879791 393.497406,365.082367 
M462.692535,126.070023 
	C466.938538,127.884224 470.662109,127.036926 473.251984,123.281570 
	C475.544617,119.957336 475.454712,116.221954 472.849762,113.050903 
	C470.016113,109.601456 466.143280,109.476967 462.417328,111.225777 
	C457.861145,113.364273 457.353302,117.415947 458.232208,122.597191 
	C456.391968,124.012245 454.551697,125.427292 452.065125,127.029434 
	C441.040527,135.065048 430.025970,143.114441 418.989288,151.133484 
	C392.606567,170.302658 366.097168,189.300491 339.891327,208.708344 
	C331.395233,215.000504 323.683380,222.351608 315.478455,229.332687 
	C316.510712,230.705658 317.039307,231.324890 317.471558,232.005325 
	C317.988922,232.819824 318.423950,233.686615 319.027283,234.768600 
	C348.871490,206.316742 382.020111,183.946747 414.433929,160.614334 
	C428.066467,150.801224 441.473022,140.674164 455.595703,130.485550 
	C457.729248,128.886444 459.862762,127.287346 462.692535,126.070023 
M281.708221,315.902954 
	C281.708221,337.815521 281.708221,359.728088 281.708221,382.066620 
	C283.406525,382.146210 284.947144,382.218384 286.760254,382.303314 
	C286.760254,359.406738 286.760254,336.984009 286.920227,313.738037 
	C286.920227,309.030762 286.920227,304.323486 286.920227,299.539734 
	C284.924591,299.539734 283.532135,299.539734 281.849884,299.539734 
	C281.849884,304.860443 281.849884,309.915405 281.708221,315.902954 
M387.183502,260.080078 
	C366.171753,258.847504 345.160034,257.614899 323.793640,256.361511 
	C324.050476,258.986877 324.222015,260.740112 324.419800,262.761902 
	C347.842407,263.525421 370.921967,264.277740 394.795349,265.278625 
	C414.004913,266.360199 433.214447,267.441742 452.619019,268.534302 
	C452.817719,266.285034 452.929474,265.020111 453.083405,263.277740 
	C431.202728,262.271271 409.615845,261.278320 387.183502,260.080078 
M230.602142,228.681458 
	C230.055069,228.493469 229.508011,228.305481 228.497284,227.615570 
	C205.500931,214.716949 182.504593,201.818329 159.254883,188.777603 
	C158.188690,190.691681 157.508026,191.913651 156.588684,193.564117 
	C186.533707,210.367050 216.118317,226.967758 245.987305,243.728043 
	C247.027634,241.441483 247.746277,239.861969 248.641495,237.894379 
	C242.525970,234.865662 236.749008,232.004608 230.602142,228.681458 
M332.565521,103.506905 
	C330.341095,107.975464 327.602386,112.265541 325.979248,116.942757 
	C317.974426,140.008865 310.231262,163.166183 302.470398,186.316315 
	C299.833740,194.181274 297.229889,202.067383 294.991791,210.050568 
	C294.144135,213.074127 291.810303,217.415497 298.742096,218.270111 
	C301.090027,210.770020 303.515625,203.329803 305.747223,195.831848 
	C311.050568,178.012909 315.749420,159.993851 321.682587,142.389313 
	C325.972015,129.662003 331.851532,117.470596 337.552063,104.617706 
	C342.741943,95.061165 348.927002,85.977348 351.277496,74.962753 
	C342.286835,82.414879 338.110901,93.007729 332.565521,103.506905 
M268.875031,217.917099 
	C270.688202,218.080154 272.501343,218.243210 274.314484,218.406265 
	C274.243011,217.262985 274.171539,216.119705 274.056732,214.181580 
	C271.644989,206.746170 269.132172,199.341766 266.840027,191.869659 
	C259.398529,167.611267 251.686905,143.427139 244.795044,119.012360 
	C241.378372,106.908592 239.526627,94.363075 237.097000,81.290413 
	C236.046600,80.778175 234.996201,80.265945 233.252899,79.491043 
	C232.952927,80.932167 232.217667,82.440125 232.426926,83.803047 
	C233.431519,90.345657 234.566742,96.874321 235.881165,103.362228 
	C243.743454,142.170273 257.851410,179.172928 268.875031,217.917099 
M366.368958,141.825363 
	C363.895416,144.443741 361.117584,146.838226 358.998962,149.717743 
	C347.481842,165.371460 336.154724,181.164780 324.706207,196.869232 
	C318.259247,205.712784 311.704407,214.477676 305.127716,223.373337 
	C307.076965,224.861679 308.748779,226.138168 310.610138,227.559402 
	C311.817139,226.144653 312.969971,224.958710 313.936096,223.636368 
	C329.806061,201.915390 345.730347,180.233246 361.440460,158.397079 
	C364.703003,153.862335 367.151703,148.742081 370.727051,143.907700 
	C372.044617,144.075485 373.381073,144.474884 374.676392,144.369400 
	C379.330536,143.990448 381.765961,140.827423 382.823883,136.769577 
	C383.772919,133.129608 382.892090,129.701172 379.043365,127.983574 
	C375.031860,126.193359 371.690857,127.420906 368.742188,130.539841 
	C365.504852,133.964096 366.417969,137.853882 366.368958,141.825363 
M368.795685,468.733887 
	C369.406006,462.289490 370.016357,455.845093 370.641083,449.248352 
	C315.325134,449.248352 261.334717,449.248352 207.016724,449.248352 
	C207.016724,455.417084 207.016724,461.209869 207.061829,467.793274 
	C207.769150,467.974365 208.476486,468.155457 209.687225,468.579773 
	C210.045593,468.511383 210.403961,468.442963 211.570206,468.630829 
	C257.540894,468.667511 303.511566,468.710480 349.482239,468.733429 
	C355.639709,468.736511 361.797272,468.638550 368.795685,468.733887 
M80.877632,71.120819 
	C85.445183,70.491867 90.009140,69.351463 94.580894,69.319298 
	C119.072182,69.147003 143.565414,69.256004 168.057968,69.249168 
	C169.833984,69.248672 171.609970,69.100128 173.507050,69.014992 
	C173.507050,62.514500 173.507050,56.442150 173.507050,49.963478 
	C171.555893,49.963478 169.924561,49.965759 168.293228,49.963135 
	C145.300171,49.926147 122.307129,49.882767 99.314072,49.853733 
	C89.744865,49.841648 80.074745,49.015678 70.329224,53.340141 
	C50.348797,62.901913 39.634453,78.355888 39.690567,100.902397 
	C39.782948,138.019775 39.714920,175.137543 39.714523,212.255142 
	C39.714504,214.359207 39.714523,216.463287 39.714523,218.664581 
	C46.738766,218.664581 53.123405,218.664581 59.927227,218.664581 
	C59.927227,216.328232 59.927792,214.363373 59.927147,212.398499 
	C59.915195,176.113251 59.895046,139.828018 59.908722,103.542778 
	C59.909657,101.060249 59.992889,98.554451 60.328907,96.099304 
	C61.995026,83.925659 69.614906,76.411087 80.877632,71.120819 
M59.884445,316.092743 
	C59.884445,310.891632 59.884445,305.690521 59.884445,300.243835 
	C52.943546,300.243835 46.733547,300.243835 39.971268,300.243835 
	C39.971268,304.205261 39.971268,308.101624 39.800648,312.922913 
	C39.770382,348.074341 39.836205,383.226227 39.675026,418.377075 
	C39.572811,440.668121 55.392609,462.802887 77.470779,466.528351 
	C93.510101,469.234833 110.212708,468.012848 126.620522,468.510834 
	C126.860962,468.518127 127.113815,468.116333 127.162956,468.074402 
	C127.162956,461.656433 127.162956,455.423737 127.162956,448.775879 
	C115.685287,448.775879 104.714256,448.744019 93.743469,448.783234 
	C76.635162,448.844391 64.678009,439.662598 60.829235,422.813446 
	C59.775818,418.201752 59.969120,413.258209 59.948357,408.465393 
	C59.816315,377.983246 59.784561,347.500671 59.884445,316.092743 
M257.104034,276.262421 
	C271.891205,297.400970 300.811157,295.908478 312.338348,273.411926 
	C318.525970,261.336090 316.229431,244.587830 307.185089,235.830490 
	C296.442871,225.429169 281.554840,223.412720 268.467834,230.360703 
	C251.934143,239.138565 247.325531,258.942841 257.104034,276.262421 
M31.980524,262.154297 
	C33.586941,270.832520 36.854946,278.415771 45.766014,281.934753 
	C54.716801,285.469360 63.148533,284.143463 70.328102,277.851410 
	C77.750465,271.346588 79.677650,262.715912 77.401764,253.369812 
	C74.724007,242.373428 64.012947,235.035233 53.613781,236.525726 
	C39.137497,238.600601 31.822983,246.961548 31.980524,262.154297 
M144.358002,458.120880 
	C146.831909,471.220032 153.981873,477.782288 166.725723,478.650116 
	C178.058273,479.421844 187.983627,471.560577 189.814026,460.363251 
	C191.880829,447.719635 185.302933,436.200806 174.291336,433.180756 
	C157.857437,428.673584 144.470062,439.441620 144.358002,458.120880 
M419.268768,474.878998 
	C419.956085,474.158203 420.683228,473.471008 421.324463,472.711334 
	C426.533112,466.540894 426.672180,459.762573 423.545074,452.696045 
	C420.391785,445.570129 414.683868,441.973907 407.035156,442.152557 
	C399.064850,442.338745 392.489868,445.408020 389.215271,453.322113 
	C385.913086,461.303070 388.072937,469.684174 394.758453,475.271759 
	C400.945770,480.442993 410.974121,480.477539 419.268768,474.878998 
M266.081207,405.998444 
	C264.393982,414.601868 271.051514,424.667450 279.457794,426.723969 
	C289.750763,429.242035 300.484070,423.091980 302.650604,413.100739 
	C304.509552,404.527924 301.091187,393.730743 289.277588,390.983185 
	C278.237274,388.415405 269.051849,394.058411 266.081207,405.998444 
M146.836212,325.799530 
	C140.424850,318.083832 130.024536,316.265900 121.899086,321.440643 
	C114.479721,326.165741 111.623856,336.184357 115.409554,344.206573 
	C119.950752,353.829773 130.675858,357.336639 140.573318,352.434540 
	C149.978302,347.776398 152.814148,336.705322 146.836212,325.799530 
M116.979019,172.861984 
	C114.923058,178.010071 115.740944,182.967178 118.186775,187.707779 
	C122.732811,196.519043 133.823410,199.878418 142.600586,195.205627 
	C151.436676,190.501465 154.603821,180.207840 149.967056,171.248108 
	C146.583618,164.710175 141.088074,161.540573 133.844604,161.408737 
	C125.971115,161.265411 120.726852,165.354996 116.979019,172.861984 
M167.500626,255.839294 
	C153.747101,255.839294 139.993561,255.839294 126.300041,255.839294 
	C125.203278,262.686890 125.447906,263.000519 131.372269,262.997375 
	C165.641220,262.979126 199.910156,262.966461 234.179108,262.952271 
	C237.460999,262.950897 240.742905,262.952087 244.011047,262.952087 
	C244.011047,260.329224 244.011047,258.256439 244.011047,255.845276 
	C218.687119,255.845276 193.593796,255.845276 167.500626,255.839294 
M241.565308,334.117310 
	C249.361420,321.375519 257.157532,308.633728 265.053223,295.729218 
	C263.140961,294.256042 261.262573,292.808990 259.363922,291.346313 
	C258.955627,291.870941 258.610626,292.239594 258.349548,292.660309 
	C240.736160,321.043884 223.127396,349.430328 205.524567,377.820465 
	C202.754440,382.288177 203.426331,383.400208 210.335220,385.124054 
	C220.554871,368.422150 230.862778,351.575989 241.565308,334.117310 
M432.910858,75.153419 
	C433.188232,74.378212 433.501953,73.613861 433.737427,72.826126 
	C436.282043,64.313515 431.043732,54.437763 422.836304,52.254223 
	C413.393890,49.742119 404.546387,54.734528 402.446686,63.759636 
	C400.870758,70.533188 404.820343,79.177322 410.742889,81.917038 
	C418.907074,85.693710 426.909119,83.453812 432.910858,75.153419 
M454.973022,438.898010 
	C453.905670,445.605652 449.420593,448.656647 443.209839,449.445099 
	C443.209839,456.117371 443.209839,462.351776 443.209839,468.535675 
	C462.980988,471.221436 479.214355,451.849854 474.095734,432.217529 
	C467.844971,432.217529 461.626556,432.217529 455.087891,432.217529 
	C455.087891,434.412842 455.087891,436.229279 454.973022,438.898010 
M172.320816,320.761841 
	C197.784103,307.203918 223.247375,293.645966 248.888153,279.993530 
	C247.845871,277.981598 246.976334,276.303070 246.111359,274.633331 
	C215.266693,291.082245 184.943802,307.252899 154.015488,323.746429 
	C155.407104,325.803131 156.607468,327.577209 157.706436,329.201416 
	C162.761826,326.244385 167.201508,323.647491 172.320816,320.761841 
M289.938995,89.740623 
	C293.616638,90.330872 297.450500,91.876923 300.938538,91.306908 
	C307.631439,90.213142 312.138306,83.624229 311.811249,77.122528 
	C311.473694,70.412025 307.173889,65.258621 300.901703,64.047188 
	C294.055420,62.724873 286.656555,66.157631 284.057831,71.862045 
	C281.356689,77.791153 283.514374,84.969322 289.938995,89.740623 
M453.989288,342.612091 
	C454.666016,343.090149 455.301971,343.643951 456.026031,344.034119 
	C461.229431,346.838043 468.586823,346.055725 472.798187,342.284760 
	C477.145569,338.392059 478.453491,331.619568 475.968842,325.867249 
	C473.774231,320.786499 468.498535,317.801636 462.133789,318.178436 
	C456.966949,318.484283 452.931152,320.603180 450.741852,325.590698 
	C448.060272,331.699799 448.950897,337.177307 453.989288,342.612091 
M288.014191,130.911713 
	C287.544250,126.245285 284.123993,129.099945 281.525848,127.989075 
	C281.525848,158.256454 281.525848,187.948639 281.525848,217.496460 
	C283.682129,217.496460 285.739563,217.496460 288.017059,217.496460 
	C288.017059,188.720123 288.017059,160.277649 288.014191,130.911713 
M470.154053,186.108734 
	C468.436523,185.527390 466.757843,184.749802 464.994354,184.400513 
	C459.085022,183.230179 451.985748,187.623520 450.120056,193.466049 
	C447.997559,200.112732 450.780579,207.760239 456.239166,210.280777 
	C462.509705,213.176239 470.980682,211.018066 474.420563,205.545181 
	C477.896942,200.014130 477.378601,190.898605 470.154053,186.108734 
M181.969330,103.141418 
	C179.700684,102.768089 177.426163,102.047279 175.164459,102.085464 
	C167.879913,102.208435 162.498428,108.669212 162.782349,116.632408 
	C163.041687,123.906265 168.884842,129.365616 176.120956,129.094879 
	C182.899796,128.841248 187.225311,125.675072 189.137466,119.567108 
	C191.102356,113.290611 188.980881,107.992256 181.969330,103.141418 
M473.517090,410.071960 
	C478.066254,405.921112 478.547546,400.831299 476.362091,395.505310 
	C474.231659,390.313599 470.143097,387.410248 464.404144,387.244049 
	C458.890717,387.084381 454.236145,390.025085 452.057983,394.899506 
	C449.730530,400.107941 451.159302,406.540558 455.485413,410.330811 
	C460.001068,414.287109 466.807617,414.387115 473.517090,410.071960 
M225.287323,62.521057 
	C225.507492,63.654591 225.644485,64.811951 225.961273,65.917801 
	C228.081482,73.318695 234.286774,76.933426 241.207886,74.837608 
	C248.037415,72.769524 251.567551,65.598259 249.220749,58.559971 
	C247.393845,53.080853 242.387833,49.583832 236.772903,49.864338 
	C231.043701,50.150555 227.015976,54.354328 225.287323,62.521057 
M354.670624,71.180428 
	C360.984680,72.913513 365.249603,71.729874 367.813538,67.532913 
	C370.966888,62.370995 369.557526,55.474548 364.760193,52.592072 
	C360.110657,49.798401 352.759857,51.235023 350.076965,55.461716 
	C346.798615,60.626499 348.415802,67.117462 354.670624,71.180428 
M475.094971,259.766602 
	C472.052765,255.381516 467.923340,254.266129 462.935455,255.716095 
	C459.253418,256.786469 457.492859,259.488678 457.246033,263.066681 
	C456.976440,266.974945 458.283783,270.333832 462.091003,272.112854 
	C465.796021,273.844116 469.543915,273.987091 472.863495,271.266479 
	C476.375580,268.388092 477.090851,264.700043 475.094971,259.766602 
M382.428650,120.610680 
	C384.554688,121.966049 386.260010,121.875343 387.788544,119.545891 
	C394.694885,109.020927 401.760162,98.599243 408.556213,88.004395 
	C409.284698,86.868683 408.635010,84.848923 408.624634,83.239258 
	C407.184204,83.938194 405.200104,84.251701 404.388580,85.396469 
	C397.300079,95.395729 390.387177,105.520607 383.523468,115.676643 
	C382.666321,116.944908 382.398407,118.611374 382.428650,120.610680 
M183.948257,419.420868 
	C182.398895,422.487976 180.849518,425.555115 179.113007,428.992706 
	C181.062866,429.738373 182.513702,430.293213 184.106659,430.902405 
	C191.099976,419.051086 197.923325,407.487823 204.843567,395.760345 
	C203.030212,394.577576 201.679764,393.696747 199.742462,392.433136 
	C194.512955,401.379028 189.422806,410.086548 183.948257,419.420868 
M83.488670,294.014038 
	C90.981262,301.256958 98.473854,308.499878 106.027771,315.802094 
	C107.626801,314.355865 108.875305,313.226654 110.754898,311.526642 
	C100.860512,302.137665 91.406250,293.166321 81.766869,284.019318 
	C80.629875,285.247650 79.338478,286.642761 77.897209,288.199829 
	C79.790657,290.181488 81.386917,291.852142 83.488670,294.014038 
M108.312271,256.251648 
	C101.221092,256.251648 94.129913,256.251648 86.585999,256.251648 
	C86.688881,258.451508 86.775955,260.313293 86.867050,262.261047 
	C96.185318,262.261047 104.942513,262.261047 113.885696,262.261047 
	C113.885696,260.276154 113.885696,258.530792 113.885696,256.481476 
	C112.171997,256.397705 110.715477,256.326477 108.312271,256.251648 
M292.047760,94.636147 
	C291.433472,95.518425 290.572144,96.318001 290.244568,97.296288 
	C287.944092,104.165939 285.752258,111.071991 283.528534,117.967323 
	C281.890869,123.045433 282.315796,123.570770 288.676331,123.683762 
	C290.715485,115.676888 292.916016,107.572678 294.742523,99.385040 
	C295.083344,97.857430 296.771759,94.792534 292.047760,94.636147 
M434.195526,210.662994 
	C438.093872,208.897400 441.992188,207.131821 446.143677,205.251572 
	C445.585144,203.285965 445.154236,201.769424 444.642181,199.967331 
	C438.158051,202.090485 432.064667,204.170715 425.912659,206.060043 
	C423.293915,206.864288 422.544983,208.233521 423.281708,210.856064 
	C424.153351,213.958878 426.126160,213.523193 428.322784,212.767578 
	C430.048584,212.173904 431.765411,211.554214 434.195526,210.662994 
z"/>
<path fill="#8C8B8A" opacity="1.000000" stroke="none" 
	d="
M59.719757,317.018219 
	C59.784561,347.500671 59.816315,377.983246 59.948357,408.465393 
	C59.969120,413.258209 59.775818,418.201752 60.829235,422.813446 
	C64.678009,439.662598 76.635162,448.844391 93.743469,448.783234 
	C104.714256,448.744019 115.685287,448.775879 127.162956,448.775879 
	C127.162956,455.423737 127.162956,461.656433 127.162956,468.074402 
	C127.113815,468.116333 126.860962,468.518127 126.620522,468.510834 
	C110.212708,468.012848 93.510101,469.234833 77.470779,466.528351 
	C55.392609,462.802887 39.572811,440.668121 39.675026,418.377075 
	C39.836205,383.226227 39.770382,348.074341 40.289543,312.461121 
	C43.433437,313.063019 46.248695,313.847473 48.705204,315.257080 
	C52.234493,317.282318 55.546852,319.496521 59.719757,317.018219 
z"/>
<path fill="#8A8989" opacity="1.000000" stroke="none" 
	d="
M80.073181,71.170891 
	C69.614906,76.411087 61.995026,83.925659 60.328907,96.099304 
	C59.992889,98.554451 59.909657,101.060249 59.908722,103.542778 
	C59.895046,139.828018 59.915195,176.113251 59.927147,212.398499 
	C59.927792,214.363373 59.927227,216.328232 59.927227,218.664581 
	C53.123405,218.664581 46.738766,218.664581 39.714523,218.664581 
	C39.714523,216.463287 39.714504,214.359207 39.714523,212.255142 
	C39.714920,175.137543 39.782948,138.019775 39.690567,100.902397 
	C39.634453,78.355888 50.348797,62.901913 70.722504,53.636105 
	C74.101593,59.678341 77.087387,65.424614 80.073181,71.170891 
z"/>
<path fill="#64D1DE" opacity="1.000000" stroke="none" 
	d="
M256.939392,275.934998 
	C247.325531,258.942841 251.934143,239.138565 268.467834,230.360703 
	C281.554840,223.412720 296.442871,225.429169 307.185089,235.830490 
	C316.229431,244.587830 318.525970,261.336090 312.338348,273.411926 
	C300.811157,295.908478 271.891205,297.400970 256.939392,275.934998 
z"/>
<path fill="#898887" opacity="1.000000" stroke="none" 
	d="
M207.016724,467.002686 
	C207.016724,461.209869 207.016724,455.417084 207.016724,449.248352 
	C261.334717,449.248352 315.325134,449.248352 370.641083,449.248352 
	C370.016357,455.845093 369.406006,462.289490 368.234619,468.309082 
	C366.275757,467.591034 364.878265,467.042786 363.480225,467.041473 
	C314.246246,466.995789 265.012207,466.987976 215.778320,467.057831 
	C214.105713,467.060181 212.434296,467.916382 210.762329,468.374573 
	C210.403961,468.442963 210.045593,468.511383 209.254990,468.168457 
	C208.220734,467.505676 207.618729,467.254181 207.016724,467.002686 
z"/>
<path fill="#8E8D8C" opacity="1.000000" stroke="none" 
	d="
M80.475403,71.145859 
	C77.087387,65.424614 74.101593,59.678341 71.062408,53.582771 
	C80.074745,49.015678 89.744865,49.841648 99.314072,49.853733 
	C122.307129,49.882767 145.300171,49.926147 168.293228,49.963135 
	C169.924561,49.965759 171.555893,49.963478 173.507050,49.963478 
	C173.507050,56.442150 173.507050,62.514500 173.507050,69.014992 
	C171.609970,69.100128 169.833984,69.248672 168.057968,69.249168 
	C143.565414,69.256004 119.072182,69.147003 94.580894,69.319298 
	C90.009140,69.351463 85.445183,70.491867 80.475403,71.145859 
z"/>
<path fill="#6CD4E1" opacity="1.000000" stroke="none" 
	d="
M31.973545,261.712097 
	C31.822983,246.961548 39.137497,238.600601 53.613781,236.525726 
	C64.012947,235.035233 74.724007,242.373428 77.401764,253.369812 
	C79.677650,262.715912 77.750465,271.346588 70.328102,277.851410 
	C63.148533,284.143463 54.716801,285.469360 45.766014,281.934753 
	C36.854946,278.415771 33.586941,270.832520 31.973545,261.712097 
z"/>
<path fill="#6FD4E1" opacity="1.000000" stroke="none" 
	d="
M144.355011,457.691589 
	C144.470062,439.441620 157.857437,428.673584 174.291336,433.180756 
	C185.302933,436.200806 191.880829,447.719635 189.814026,460.363251 
	C187.983627,471.560577 178.058273,479.421844 166.725723,478.650116 
	C153.981873,477.782288 146.831909,471.220032 144.355011,457.691589 
z"/>
<path fill="#69D1DE" opacity="1.000000" stroke="none" 
	d="
M418.983337,475.116577 
	C410.974121,480.477539 400.945770,480.442993 394.758453,475.271759 
	C388.072937,469.684174 385.913086,461.303070 389.215271,453.322113 
	C392.489868,445.408020 399.064850,442.338745 407.035156,442.152557 
	C414.683868,441.973907 420.391785,445.570129 423.545074,452.696045 
	C426.672180,459.762573 426.533112,466.540894 421.324463,472.711334 
	C420.683228,473.471008 419.956085,474.158203 418.983337,475.116577 
z"/>
<path fill="#66D0DE" opacity="1.000000" stroke="none" 
	d="
M266.258667,405.614746 
	C269.051849,394.058411 278.237274,388.415405 289.277588,390.983185 
	C301.091187,393.730743 304.509552,404.527924 302.650604,413.100739 
	C300.484070,423.091980 289.750763,429.242035 279.457794,426.723969 
	C271.051514,424.667450 264.393982,414.601868 266.258667,405.614746 
z"/>
<path fill="#6CD4E1" opacity="1.000000" stroke="none" 
	d="
M147.034271,326.118774 
	C152.814148,336.705322 149.978302,347.776398 140.573318,352.434540 
	C130.675858,357.336639 119.950752,353.829773 115.409554,344.206573 
	C111.623856,336.184357 114.479721,326.165741 121.899086,321.440643 
	C130.024536,316.265900 140.424850,318.083832 147.034271,326.118774 
z"/>
<path fill="#63D0DD" opacity="1.000000" stroke="none" 
	d="
M117.123482,172.493469 
	C120.726852,165.354996 125.971115,161.265411 133.844604,161.408737 
	C141.088074,161.540573 146.583618,164.710175 149.967056,171.248108 
	C154.603821,180.207840 151.436676,190.501465 142.600586,195.205627 
	C133.823410,199.878418 122.732811,196.519043 118.186775,187.707779 
	C115.740944,182.967178 114.923058,178.010071 117.123482,172.493469 
z"/>
<path fill="#838282" opacity="1.000000" stroke="none" 
	d="
M454.982300,130.689819 
	C441.473022,140.674164 428.066467,150.801224 414.433929,160.614334 
	C382.020111,183.946747 348.871490,206.316742 319.027283,234.768600 
	C318.423950,233.686615 317.988922,232.819824 317.471558,232.005325 
	C317.039307,231.324890 316.510712,230.705658 315.478455,229.332687 
	C323.683380,222.351608 331.395233,215.000504 339.891327,208.708344 
	C366.097168,189.300491 392.606567,170.302658 418.989288,151.133484 
	C430.025970,143.114441 441.040527,135.065048 452.703156,127.093903 
	C453.888214,128.335526 454.435242,129.512680 454.982300,130.689819 
z"/>
<path fill="#F5F4F4" opacity="1.000000" stroke="none" 
	d="
M168.000549,255.842285 
	C193.593796,255.845276 218.687119,255.845276 244.011047,255.845276 
	C244.011047,258.256439 244.011047,260.329224 244.011047,262.952087 
	C240.742905,262.952087 237.460999,262.950897 234.179108,262.952271 
	C199.910156,262.966461 165.641220,262.979126 131.372269,262.997375 
	C125.447906,263.000519 125.203278,262.686890 126.300041,255.839294 
	C139.993561,255.839294 153.747101,255.839294 168.000549,255.842285 
z"/>
<path fill="#F3F3F3" opacity="1.000000" stroke="none" 
	d="
M241.367996,334.423584 
	C230.862778,351.575989 220.554871,368.422150 210.335220,385.124054 
	C203.426331,383.400208 202.754440,382.288177 205.524567,377.820465 
	C223.127396,349.430328 240.736160,321.043884 258.349548,292.660309 
	C258.610626,292.239594 258.955627,291.870941 259.363922,291.346313 
	C261.262573,292.808990 263.140961,294.256042 265.053223,295.729218 
	C257.157532,308.633728 249.361420,321.375519 241.367996,334.423584 
z"/>
<path fill="#6CD2DF" opacity="1.000000" stroke="none" 
	d="
M432.727234,75.484055 
	C426.909119,83.453812 418.907074,85.693710 410.742889,81.917038 
	C404.820343,79.177322 400.870758,70.533188 402.446686,63.759636 
	C404.546387,54.734528 413.393890,49.742119 422.836304,52.254223 
	C431.043732,54.437763 436.282043,64.313515 433.737427,72.826126 
	C433.501953,73.613861 433.188232,74.378212 432.727234,75.484055 
z"/>
<path fill="#898887" opacity="1.000000" stroke="none" 
	d="
M455.030457,438.471863 
	C455.087891,436.229279 455.087891,434.412842 455.087891,432.217529 
	C461.626556,432.217529 467.844971,432.217529 474.095734,432.217529 
	C479.214355,451.849854 462.980988,471.221436 443.209839,468.535675 
	C443.209839,462.351776 443.209839,456.117371 443.209839,449.445099 
	C449.420593,448.656647 453.905670,445.605652 455.030457,438.471863 
z"/>
<path fill="#F3F3F3" opacity="1.000000" stroke="none" 
	d="
M369.975494,143.891663 
	C367.151703,148.742081 364.703003,153.862335 361.440460,158.397079 
	C345.730347,180.233246 329.806061,201.915390 313.936096,223.636368 
	C312.969971,224.958710 311.817139,226.144653 310.610138,227.559402 
	C308.748779,226.138168 307.076965,224.861679 305.127716,223.373337 
	C311.704407,214.477676 318.259247,205.712784 324.706207,196.869232 
	C336.154724,181.164780 347.481842,165.371460 358.998962,149.717743 
	C361.117584,146.838226 363.895416,144.443741 366.991577,141.943604 
	C368.401306,142.671799 369.188385,143.281723 369.975494,143.891663 
z"/>
<path fill="#F3F3F3" opacity="1.000000" stroke="none" 
	d="
M417.577515,319.320190 
	C393.749207,309.362091 369.910187,299.429413 346.098206,289.432465 
	C337.526215,285.833740 329.019012,282.080627 320.195496,278.274292 
	C320.908386,276.059113 321.534332,274.114075 322.393707,271.443726 
	C355.544891,285.953430 388.450073,300.355469 421.436340,315.200439 
	C420.204132,316.868988 418.890839,318.094604 417.577515,319.320190 
z"/>
<path fill="#858483" opacity="1.000000" stroke="none" 
	d="
M236.966888,82.017410 
	C239.526627,94.363075 241.378372,106.908592 244.795044,119.012360 
	C251.686905,143.427139 259.398529,167.611267 266.840027,191.869659 
	C269.132172,199.341766 271.644989,206.746170 273.710663,214.589233 
	C271.853149,215.691589 270.341675,216.386292 268.830231,217.080994 
	C257.851410,179.172928 243.743454,142.170273 235.881165,103.362228 
	C234.566742,96.874321 233.431519,90.345657 232.426926,83.803047 
	C232.217667,82.440125 232.952927,80.932167 233.616180,79.966019 
	C234.114105,81.795479 234.248749,83.149971 234.473145,85.407326 
	C235.712051,83.723190 236.339478,82.870300 236.966888,82.017410 
z"/>
<path fill="#838282" opacity="1.000000" stroke="none" 
	d="
M337.021912,105.040192 
	C331.851532,117.470596 325.972015,129.662003 321.682587,142.389313 
	C315.749420,159.993851 311.050568,178.012909 305.747223,195.831848 
	C303.515625,203.329803 301.090027,210.770020 298.742096,218.270111 
	C291.810303,217.415497 294.144135,213.074127 294.991791,210.050568 
	C297.229889,202.067383 299.833740,194.181274 302.470398,186.316315 
	C310.231262,163.166183 317.974426,140.008865 325.979248,116.942757 
	C327.602386,112.265541 330.341095,107.975464 333.147797,103.259033 
	C334.827332,103.687500 335.924622,104.363846 337.021912,105.040192 
z"/>
<path fill="#7F7E7D" opacity="1.000000" stroke="none" 
	d="
M171.981003,320.906189 
	C167.201508,323.647491 162.761826,326.244385 157.706436,329.201416 
	C156.607468,327.577209 155.407104,325.803131 154.015488,323.746429 
	C184.943802,307.252899 215.266693,291.082245 246.111359,274.633331 
	C246.976334,276.303070 247.845871,277.981598 248.888153,279.993530 
	C223.247375,293.645966 197.784103,307.203918 171.981003,320.906189 
z"/>
<path fill="#68CEDC" opacity="1.000000" stroke="none" 
	d="
M289.623108,89.533173 
	C283.514374,84.969322 281.356689,77.791153 284.057831,71.862045 
	C286.656555,66.157631 294.055420,62.724873 300.901703,64.047188 
	C307.173889,65.258621 311.473694,70.412025 311.811249,77.122528 
	C312.138306,83.624229 307.631439,90.213142 300.938538,91.306908 
	C297.450500,91.876923 293.616638,90.330872 289.623108,89.533173 
z"/>
<path fill="#66D0DE" opacity="1.000000" stroke="none" 
	d="
M453.725647,342.345367 
	C448.950897,337.177307 448.060272,331.699799 450.741852,325.590698 
	C452.931152,320.603180 456.966949,318.484283 462.133789,318.178436 
	C468.498535,317.801636 473.774231,320.786499 475.968842,325.867249 
	C478.453491,331.619568 477.145569,338.392059 472.798187,342.284760 
	C468.586823,346.055725 461.229431,346.838043 456.026031,344.034119 
	C455.301971,343.643951 454.666016,343.090149 453.725647,342.345367 
z"/>
<path fill="#ECEBEC" opacity="1.000000" stroke="none" 
	d="
M288.015625,131.373444 
	C288.017059,160.277649 288.017059,188.720123 288.017059,217.496460 
	C285.739563,217.496460 283.682129,217.496460 281.525848,217.496460 
	C281.525848,187.948639 281.525848,158.256454 281.525848,127.989075 
	C284.123993,129.099945 287.544250,126.245285 288.015625,131.373444 
z"/>
<path fill="#63D0DD" opacity="1.000000" stroke="none" 
	d="
M470.461426,186.330658 
	C477.378601,190.898605 477.896942,200.014130 474.420563,205.545181 
	C470.980682,211.018066 462.509705,213.176239 456.239166,210.280777 
	C450.780579,207.760239 447.997559,200.112732 450.120056,193.466049 
	C451.985748,187.623520 459.085022,183.230179 464.994354,184.400513 
	C466.757843,184.749802 468.436523,185.527390 470.461426,186.330658 
z"/>
<path fill="#61CEDC" opacity="1.000000" stroke="none" 
	d="
M182.327881,103.298569 
	C188.980881,107.992256 191.102356,113.290611 189.137466,119.567108 
	C187.225311,125.675072 182.899796,128.841248 176.120956,129.094879 
	C168.884842,129.365616 163.041687,123.906265 162.782349,116.632408 
	C162.498428,108.669212 167.879913,102.208435 175.164459,102.085464 
	C177.426163,102.047279 179.700684,102.768089 182.327881,103.298569 
z"/>
<path fill="#858483" opacity="1.000000" stroke="none" 
	d="
M230.972046,229.143570 
	C236.749008,232.004608 242.525970,234.865662 248.641495,237.894379 
	C247.746277,239.861969 247.027634,241.441483 245.987305,243.728043 
	C216.118317,226.967758 186.533707,210.367050 156.588684,193.564117 
	C157.508026,191.913651 158.188690,190.691681 159.254883,188.777603 
	C182.504593,201.818329 205.500931,214.716949 228.743896,228.183365 
	C229.339661,229.353790 229.688828,229.956436 230.037994,230.559082 
	C230.349350,230.087250 230.660690,229.615402 230.972046,229.143570 
z"/>
<path fill="#66D0DE" opacity="1.000000" stroke="none" 
	d="
M473.249695,410.329895 
	C466.807617,414.387115 460.001068,414.287109 455.485413,410.330811 
	C451.159302,406.540558 449.730530,400.107941 452.057983,394.899506 
	C454.236145,390.025085 458.890717,387.084381 464.404144,387.244049 
	C470.143097,387.410248 474.231659,390.313599 476.362091,395.505310 
	C478.547546,400.831299 478.066254,405.921112 473.249695,410.329895 
z"/>
<path fill="#61CEDC" opacity="1.000000" stroke="none" 
	d="
M225.339767,62.131752 
	C227.015976,54.354328 231.043701,50.150555 236.772903,49.864338 
	C242.387833,49.583832 247.393845,53.080853 249.220749,58.559971 
	C251.567551,65.598259 248.037415,72.769524 241.207886,74.837608 
	C234.286774,76.933426 228.081482,73.318695 225.961273,65.917801 
	C225.644485,64.811951 225.507492,63.654591 225.339767,62.131752 
z"/>
<path fill="#59CADB" opacity="1.000000" stroke="none" 
	d="
M369.003845,231.895020 
	C368.784149,232.166718 368.500397,232.319016 367.480347,232.223633 
	C363.354034,233.479156 359.899902,234.862946 356.445740,236.246735 
	C349.373138,238.853378 342.300507,241.460037 334.512085,244.080170 
	C333.197845,244.393234 332.599426,244.692871 332.001007,244.992493 
	C332.001007,244.992493 331.998169,245.002045 331.655151,244.990723 
	C330.538483,245.324402 329.764893,245.669388 328.991272,246.014374 
	C328.991272,246.014374 328.791870,246.238739 328.271973,246.125092 
	C324.813385,244.264999 325.943237,242.196838 328.330383,242.524918 
	C333.073273,243.176743 333.688568,239.984451 334.988220,237.086884 
	C354.065338,230.393433 373.142456,223.699982 392.741028,217.318542 
	C394.537628,222.562454 390.683929,222.962967 387.609955,223.868835 
	C383.076050,225.204910 378.388489,226.083725 373.965088,227.700867 
	C372.055481,228.399017 370.642456,230.455566 369.003845,231.895020 
z"/>
<path fill="#838282" opacity="1.000000" stroke="none" 
	d="
M394.001495,265.030060 
	C370.921967,264.277740 347.842407,263.525421 324.419800,262.761902 
	C324.222015,260.740112 324.050476,258.986877 323.793640,256.361511 
	C345.160034,257.614899 366.171753,258.847504 387.701111,260.507660 
	C389.525146,263.177429 394.395660,260.386322 394.001495,265.030060 
z"/>
<path fill="#ECEBEC" opacity="1.000000" stroke="none" 
	d="
M233.990448,200.849335 
	C222.159912,185.533249 210.329376,170.217148 198.805542,154.509674 
	C200.468781,153.254959 201.825302,152.391632 203.181824,151.528305 
	C213.603912,165.006561 224.029678,178.481964 234.444214,191.966049 
	C236.043854,194.037170 237.591797,196.148224 238.921326,198.583725 
	C237.147858,199.644836 233.924072,196.235474 233.990448,200.849335 
z"/>
<path fill="#7ED7E3" opacity="1.000000" stroke="none" 
	d="
M354.299316,71.049538 
	C348.415802,67.117462 346.798615,60.626499 350.076965,55.461716 
	C352.759857,51.235023 360.110657,49.798401 364.760193,52.592072 
	C369.557526,55.474548 370.966888,62.370995 367.813538,67.532913 
	C365.249603,71.729874 360.984680,72.913513 354.299316,71.049538 
z"/>
<path fill="#8E8D8C" opacity="1.000000" stroke="none" 
	d="
M286.760254,314.561249 
	C286.760254,336.984009 286.760254,359.406738 286.760254,382.303314 
	C284.947144,382.218384 283.406525,382.146210 281.708221,382.066620 
	C281.708221,359.728088 281.708221,337.815521 282.269562,315.440918 
	C284.140686,314.839691 285.450470,314.700470 286.760254,314.561249 
z"/>
<path fill="#8E8D8C" opacity="1.000000" stroke="none" 
	d="
M394.398438,265.154358 
	C394.395660,260.386322 389.525146,263.177429 388.123840,260.610291 
	C409.615845,261.278320 431.202728,262.271271 453.083405,263.277740 
	C452.929474,265.020111 452.817719,266.285034 452.619019,268.534302 
	C433.214447,267.441742 414.004913,266.360199 394.398438,265.154358 
z"/>
<path fill="#989795" opacity="1.000000" stroke="none" 
	d="
M211.166260,468.502686 
	C212.434296,467.916382 214.105713,467.060181 215.778320,467.057831 
	C265.012207,466.987976 314.246246,466.995789 363.480225,467.041473 
	C364.878265,467.042786 366.275757,467.591034 367.814148,468.235840 
	C361.797272,468.638550 355.639709,468.736511 349.482239,468.733429 
	C303.511566,468.710480 257.540894,468.667511 211.166260,468.502686 
z"/>
<path fill="#858483" opacity="1.000000" stroke="none" 
	d="
M59.802101,316.555481 
	C55.546852,319.496521 52.234493,317.282318 48.705204,315.257080 
	C46.248695,313.847473 43.433437,313.063019 40.374855,311.998627 
	C39.971268,308.101624 39.971268,304.205261 39.971268,300.243835 
	C46.733547,300.243835 52.943546,300.243835 59.884445,300.243835 
	C59.884445,305.690521 59.884445,310.891632 59.802101,316.555481 
z"/>
<path fill="#C6E4EB" opacity="1.000000" stroke="none" 
	d="
M165.986816,392.073761 
	C176.240738,389.985443 182.221176,394.117249 181.306549,402.615784 
	C180.798416,407.337280 178.394150,410.294373 173.603287,410.954895 
	C169.082886,411.578125 164.562958,409.113922 163.800140,404.528656 
	C163.221527,401.050659 164.472092,397.268372 165.347794,393.258301 
	C166.076889,392.675690 166.143539,392.401917 165.986816,392.073761 
z"/>
<path fill="#838282" opacity="1.000000" stroke="none" 
	d="
M408.245087,366.894867 
	C422.538239,374.666595 436.831421,382.438293 451.434204,390.378357 
	C450.337280,392.592438 449.732452,393.813293 448.916718,395.459900 
	C433.793793,387.084106 418.981750,378.880524 404.313965,370.334534 
	C405.720490,368.959717 406.982788,367.927277 408.245087,366.894867 
z"/>
<path fill="#B8E7EF" opacity="1.000000" stroke="none" 
	d="
M475.219360,260.145599 
	C477.090851,264.700043 476.375580,268.388092 472.863495,271.266479 
	C469.543915,273.987091 465.796021,273.844116 462.091003,272.112854 
	C458.283783,270.333832 456.976440,266.974945 457.246033,263.066681 
	C457.492859,259.488678 459.253418,256.786469 462.935455,255.716095 
	C467.923340,254.266129 472.052765,255.381516 475.219360,260.145599 
z"/>
<path fill="#4BC8D9" opacity="1.000000" stroke="none" 
	d="
M382.143066,120.352005 
	C382.398407,118.611374 382.666321,116.944908 383.523468,115.676643 
	C390.387177,105.520607 397.300079,95.395729 404.388580,85.396469 
	C405.200104,84.251701 407.184204,83.938194 408.624634,83.239258 
	C408.635010,84.848923 409.284698,86.868683 408.556213,88.004395 
	C401.760162,98.599243 394.694885,109.020927 387.788544,119.545891 
	C386.260010,121.875343 384.554688,121.966049 382.143066,120.352005 
z"/>
<path fill="#4BC8D9" opacity="1.000000" stroke="none" 
	d="
M184.140457,419.107483 
	C189.422806,410.086548 194.512955,401.379028 199.742462,392.433136 
	C201.679764,393.696747 203.030212,394.577576 204.843567,395.760345 
	C197.923325,407.487823 191.099976,419.051086 184.106659,430.902405 
	C182.513702,430.293213 181.062866,429.738373 179.113007,428.992706 
	C180.849518,425.555115 182.398895,422.487976 184.140457,419.107483 
z"/>
<path fill="#47BDCD" opacity="1.000000" stroke="none" 
	d="
M83.235931,293.768402 
	C81.386917,291.852142 79.790657,290.181488 77.897209,288.199829 
	C79.338478,286.642761 80.629875,285.247650 81.766869,284.019318 
	C91.406250,293.166321 100.860512,302.137665 110.754898,311.526642 
	C108.875305,313.226654 107.626801,314.355865 106.027771,315.802094 
	C98.473854,308.499878 90.981262,301.256958 83.235931,293.768402 
z"/>
<path fill="#61CEDC" opacity="1.000000" stroke="none" 
	d="
M369.388306,231.885162 
	C370.642456,230.455566 372.055481,228.399017 373.965088,227.700867 
	C378.388489,226.083725 383.076050,225.204910 387.609955,223.868835 
	C390.683929,222.962967 394.537628,222.562454 393.127899,217.317413 
	C399.231476,214.736374 405.452148,212.418427 411.718353,210.230713 
	C413.628265,209.563904 415.821503,208.213013 417.019867,211.466156 
	C418.160309,214.562012 416.522461,215.575027 413.978790,216.452515 
	C399.225647,221.541885 384.504639,226.724335 369.388306,231.885162 
z"/>
<path fill="#84D5E1" opacity="1.000000" stroke="none" 
	d="
M370.351257,143.899689 
	C369.188385,143.281723 368.401306,142.671799 367.353943,141.918579 
	C366.417969,137.853882 365.504852,133.964096 368.742188,130.539841 
	C371.690857,127.420906 375.031860,126.193359 379.043365,127.983574 
	C382.892090,129.701172 383.772919,133.129608 382.823883,136.769577 
	C381.765961,140.827423 379.330536,143.990448 374.676392,144.369400 
	C373.381073,144.474884 372.044617,144.075485 370.351257,143.899689 
z"/>
<path fill="#A0E1EA" opacity="1.000000" stroke="none" 
	d="
M458.305450,121.865524 
	C457.353302,117.415947 457.861145,113.364273 462.417328,111.225777 
	C466.143280,109.476967 470.016113,109.601456 472.849762,113.050903 
	C475.454712,116.221954 475.544617,119.957336 473.251984,123.281570 
	C470.662109,127.036926 466.938538,127.884224 462.231445,125.608124 
	C460.615417,124.052658 459.460449,122.959091 458.305450,121.865524 
z"/>
<path fill="#BBCCD0" opacity="1.000000" stroke="none" 
	d="
M317.296234,313.417755 
	C322.236633,321.948364 327.177063,330.478973 331.901001,339.684265 
	C330.725159,341.404053 329.765778,342.449097 328.806427,343.494171 
	C323.198547,334.588531 317.590668,325.682892 312.349335,316.407135 
	C314.242676,315.163940 315.769440,314.290863 317.296234,313.417755 
z"/>
<path fill="#59CADB" opacity="1.000000" stroke="none" 
	d="
M108.785614,256.253448 
	C110.715477,256.326477 112.171997,256.397705 113.885696,256.481476 
	C113.885696,258.530792 113.885696,260.276154 113.885696,262.261047 
	C104.942513,262.261047 96.185318,262.261047 86.867050,262.261047 
	C86.775955,260.313293 86.688881,258.451508 86.585999,256.251648 
	C94.129913,256.251648 101.221092,256.251648 108.785614,256.253448 
z"/>
<path fill="#B7B7B7" opacity="1.000000" stroke="none" 
	d="
M328.864136,343.825317 
	C329.765778,342.449097 330.725159,341.404053 331.906067,340.052307 
	C333.044556,340.570007 334.224030,341.235199 334.836029,342.244507 
	C339.000488,349.112335 343.045471,356.052582 347.054993,363.718201 
	C346.222992,366.113342 345.464996,367.759705 344.707031,369.406097 
	C339.445312,360.989532 334.183594,352.572998 328.864136,343.825317 
z"/>
<path fill="#52C4D3" opacity="1.000000" stroke="none" 
	d="
M292.428925,94.598022 
	C296.771759,94.792534 295.083344,97.857430 294.742523,99.385040 
	C292.916016,107.572678 290.715485,115.676888 288.676331,123.683762 
	C282.315796,123.570770 281.890869,123.045433 283.528534,117.967323 
	C285.752258,111.071991 287.944092,104.165939 290.244568,97.296288 
	C290.572144,96.318001 291.433472,95.518425 292.428925,94.598022 
z"/>
<path fill="#E0E9ED" opacity="1.000000" stroke="none" 
	d="
M350.848785,326.323517 
	C344.425964,319.514557 338.003143,312.705627 331.786438,305.446533 
	C332.670563,303.628204 333.348511,302.260010 334.026459,300.891815 
	C340.786133,307.915466 347.545837,314.939148 354.043335,322.615814 
	C352.803711,324.287048 351.826263,325.305298 350.848785,326.323517 
z"/>
<path fill="#7F7E7D" opacity="1.000000" stroke="none" 
	d="
M337.286987,104.828949 
	C335.924622,104.363846 334.827332,103.687500 333.382324,103.006462 
	C338.110901,93.007729 342.286835,82.414879 351.277496,74.962753 
	C348.927002,85.977348 342.741943,95.061165 337.286987,104.828949 
z"/>
<path fill="#52C4D3" opacity="1.000000" stroke="none" 
	d="
M433.840881,210.804535 
	C431.765411,211.554214 430.048584,212.173904 428.322784,212.767578 
	C426.126160,213.523193 424.153351,213.958878 423.281708,210.856064 
	C422.544983,208.233521 423.293915,206.864288 425.912659,206.060043 
	C432.064667,204.170715 438.158051,202.090485 444.642181,199.967331 
	C445.154236,201.769424 445.585144,203.285965 446.143677,205.251572 
	C441.992188,207.131821 438.093872,208.897400 433.840881,210.804535 
z"/>
<path fill="#C6E4EB" opacity="1.000000" stroke="none" 
	d="
M366.908295,397.046967 
	C370.665375,403.084045 374.422455,409.121124 377.944397,415.695374 
	C376.596283,417.128448 375.483246,418.024353 374.370239,418.920258 
	C370.184540,412.604523 365.998840,406.288818 362.101044,399.458374 
	C363.895386,398.311462 365.401855,397.679230 366.908295,397.046967 
z"/>
<path fill="#989795" opacity="1.000000" stroke="none" 
	d="
M166.064713,391.624939 
	C166.143539,392.401917 166.076889,392.675690 165.561447,392.930756 
	C164.032455,391.046082 162.187347,389.293884 161.528671,387.173248 
	C159.687180,381.244354 158.336441,375.163086 156.973999,368.447144 
	C158.507401,367.145966 159.858841,366.539581 161.210281,365.933228 
	C162.854401,374.347534 164.498505,382.761841 166.064713,391.624939 
z"/>
<path fill="#64D1DE" opacity="1.000000" stroke="none" 
	d="
M368.032898,336.900604 
	C371.142761,340.289581 374.490479,343.500397 377.233887,347.163818 
	C378.198883,348.452423 377.682709,350.850250 377.842834,352.741638 
	C376.239594,352.183380 374.241272,352.046875 373.108765,350.986053 
	C369.988098,348.062683 367.229858,344.752350 364.464050,341.092102 
	C365.744263,339.359619 366.888580,338.130127 368.032898,336.900604 
z"/>
<path fill="#B7B7B7" opacity="1.000000" stroke="none" 
	d="
M392.915833,364.635956 
	C389.227448,362.879791 385.276764,361.494507 381.989929,359.170471 
	C380.806488,358.333649 381.218994,355.239685 380.903198,353.175781 
	C382.825073,353.216217 385.112549,352.612579 386.583313,353.447571 
	C388.804443,354.708557 390.455902,356.972931 392.662048,359.345093 
	C392.955017,361.464844 392.935425,363.050385 392.915833,364.635956 
z"/>
<path fill="#6CD2DF" opacity="1.000000" stroke="none" 
	d="
M306.048553,306.863159 
	C303.993927,303.710632 301.939301,300.558105 299.713715,297.143280 
	C301.897430,295.827393 303.694763,294.744354 305.899048,293.416077 
	C307.652924,296.347687 309.334778,299.158936 310.936859,302.647278 
	C309.254242,304.503967 307.651398,305.683563 306.048553,306.863159 
z"/>
<path fill="#E0E9ED" opacity="1.000000" stroke="none" 
	d="
M253.064728,215.971924 
	C255.518005,218.631760 257.971252,221.291595 260.185089,223.691849 
	C258.354004,225.259628 256.666168,226.704712 254.638748,228.440567 
	C253.251114,226.524231 251.181686,223.666290 249.083405,220.132751 
	C250.391266,218.295410 251.727997,217.133667 253.064728,215.971924 
z"/>
<path fill="#BBCCD0" opacity="1.000000" stroke="none" 
	d="
M327.187714,301.353546 
	C323.942108,298.372894 320.696503,295.392212 317.501221,291.889618 
	C318.765411,290.126953 319.979309,288.886230 321.193207,287.645477 
	C324.085114,290.400818 326.977051,293.156189 329.964355,296.640717 
	C329.102386,298.697784 328.145050,300.025665 327.187714,301.353546 
z"/>
<path fill="#8E8D8C" opacity="1.000000" stroke="none" 
	d="
M393.206635,364.859161 
	C392.935425,363.050385 392.955017,361.464844 392.973358,359.481842 
	C397.910767,361.503571 402.849457,363.922699 408.016602,366.618347 
	C406.982788,367.927277 405.720490,368.959717 404.099182,370.061401 
	C400.325928,368.447876 396.911652,366.765106 393.206635,364.859161 
z"/>
<path fill="#E0E9ED" opacity="1.000000" stroke="none" 
	d="
M246.846283,217.414719 
	C244.070129,214.130402 241.293961,210.846085 238.790283,207.143066 
	C239.466568,204.481750 239.870346,202.239151 240.274109,199.996536 
	C242.931992,203.200226 245.589859,206.403915 248.253250,210.342407 
	C247.787949,213.189697 247.317108,215.302200 246.846283,217.414719 
z"/>
<path fill="#E0E9ED" opacity="1.000000" stroke="none" 
	d="
M354.815826,374.074829 
	C356.517059,376.086853 358.604645,377.902374 359.767578,380.188263 
	C360.414215,381.459412 359.519409,383.514709 359.319275,385.216614 
	C357.460785,384.966858 355.148193,385.307404 353.859985,384.316345 
	C352.288361,383.107300 351.577362,380.779572 350.754883,378.531921 
	C352.282318,376.777069 353.549072,375.425934 354.815826,374.074829 
z"/>
<path fill="#D5D6D7" opacity="1.000000" stroke="none" 
	d="
M354.721313,373.747192 
	C353.549072,375.425934 352.282318,376.777069 350.628662,378.183685 
	C348.471344,375.509949 346.700958,372.780762 344.818787,369.728821 
	C345.464996,367.759705 346.222992,366.113342 347.029602,364.080933 
	C349.594391,366.936462 352.110596,370.178009 354.721313,373.747192 
z"/>
<path fill="#84D5E1" opacity="1.000000" stroke="none" 
	d="
M384.306580,424.475220 
	C386.901367,428.015625 389.496124,431.556000 392.164612,435.196960 
	C390.487213,436.435944 389.186340,437.396759 387.436829,438.688995 
	C385.595978,436.114197 383.823364,433.634827 382.013733,430.412384 
	C382.753357,427.937927 383.529968,426.206573 384.306580,424.475220 
z"/>
<path fill="#52C4D3" opacity="1.000000" stroke="none" 
	d="
M334.606506,237.088806 
	C333.688568,239.984451 333.073273,243.176743 328.330383,242.524918 
	C325.943237,242.196838 324.813385,244.264999 328.127197,246.085434 
	C326.875763,246.943970 325.249176,247.728531 323.327240,248.655548 
	C322.412567,246.111877 321.589844,243.823822 320.710510,241.378433 
	C325.410065,239.887390 329.817444,238.489044 334.606506,237.088806 
z"/>
<path fill="#7F7E7D" opacity="1.000000" stroke="none" 
	d="
M286.840240,314.149658 
	C285.450470,314.700470 284.140686,314.839691 282.340393,314.974670 
	C281.849884,309.915405 281.849884,304.860443 281.849884,299.539734 
	C283.532135,299.539734 284.924591,299.539734 286.920227,299.539734 
	C286.920227,304.323486 286.920227,309.030762 286.840240,314.149658 
z"/>
<path fill="#BBCCD0" opacity="1.000000" stroke="none" 
	d="
M384.199188,424.161469 
	C383.529968,426.206573 382.753357,427.937927 381.946106,430.091003 
	C379.482300,426.844788 377.049072,423.176849 374.493042,419.214600 
	C375.483246,418.024353 376.596283,417.128448 378.079224,416.017883 
	C380.330017,418.484711 382.210907,421.166229 384.199188,424.161469 
z"/>
<path fill="#7ED7E3" opacity="1.000000" stroke="none" 
	d="
M434.825378,327.075867 
	C432.344360,326.034546 429.863373,324.993225 427.154785,323.362671 
	C427.603363,321.204407 428.279541,319.635376 428.955688,318.066345 
	C431.422058,318.972137 433.888428,319.877991 436.624603,321.289978 
	C436.204712,323.556030 435.515045,325.315948 434.825378,327.075867 
M429.511566,323.414856 
	C429.511566,323.414856 429.570831,323.512146 429.511566,323.414856 
z"/>
<path fill="#64D1DE" opacity="1.000000" stroke="none" 
	d="
M189.012878,141.887085 
	C187.243179,139.579025 185.473465,137.270981 183.501877,134.699646 
	C185.359085,133.471008 186.828140,132.499146 188.724167,131.244797 
	C190.452011,133.643951 192.141342,135.989655 193.634491,138.881714 
	C192.126007,140.523071 190.813736,141.618073 189.501450,142.713074 
	C189.501450,142.713074 189.324371,142.562149 189.431931,142.323898 
	C189.363953,142.019470 189.188416,141.953278 189.012878,141.887085 
z"/>
<path fill="#B8E7EF" opacity="1.000000" stroke="none" 
	d="
M350.961029,326.629578 
	C351.826263,325.305298 352.803711,324.287048 353.999512,322.962433 
	C356.401917,324.816956 358.586029,326.977875 360.777893,329.703918 
	C359.845978,331.523590 358.906219,332.778137 357.966492,334.032684 
	C355.668732,331.667023 353.371002,329.301361 350.961029,326.629578 
z"/>
<path fill="#7ED7E3" opacity="1.000000" stroke="none" 
	d="
M358.071350,334.350250 
	C358.906219,332.778137 359.845978,331.523590 360.987915,329.958435 
	C363.393768,331.859741 365.597412,334.071625 367.916962,336.592041 
	C366.888580,338.130127 365.744263,339.359619 364.346069,340.781799 
	C362.120239,338.872253 360.148254,336.770050 358.071350,334.350250 
z"/>
<path fill="#A0E1EA" opacity="1.000000" stroke="none" 
	d="
M428.689392,317.850830 
	C428.279541,319.635376 427.603363,321.204407 426.893982,323.173767 
	C423.918915,322.335327 420.977020,321.096588 417.806335,319.589020 
	C418.890839,318.094604 420.204132,316.868988 421.737152,315.377045 
	C424.112274,315.952240 426.267700,316.793793 428.689392,317.850830 
z"/>
<path fill="#D5D6D7" opacity="1.000000" stroke="none" 
	d="
M203.095367,151.212952 
	C201.825302,152.391632 200.468781,153.254959 198.678406,154.171448 
	C196.855789,152.436096 195.467010,150.647583 194.153564,148.266632 
	C195.664093,146.805328 197.099274,145.936478 198.534454,145.067627 
	C200.025940,147.010941 201.517426,148.954269 203.095367,151.212952 
z"/>
<path fill="#838282" opacity="1.000000" stroke="none" 
	d="
M161.202332,365.548798 
	C159.858841,366.539581 158.507401,367.145966 156.942520,368.063354 
	C155.818344,365.193085 154.907623,362.011810 154.016479,358.407806 
	C154.036072,357.985107 154.023209,358.007965 154.023209,358.007965 
	C158.723099,358.079163 160.321869,361.257874 161.202332,365.548798 
z"/>
<path fill="#52C4D3" opacity="1.000000" stroke="none" 
	d="
M366.856445,396.701935 
	C365.401855,397.679230 363.895386,398.311462 362.068085,399.107300 
	C361.747223,399.270905 361.805664,399.155823 361.761566,398.842834 
	C361.294830,398.405853 360.872223,398.281891 360.449585,398.157928 
	C356.755371,394.422211 361.794434,393.504608 362.612915,389.697998 
	C364.485809,392.673309 365.645203,394.515106 366.856445,396.701935 
z"/>
<path fill="#84D5E1" opacity="1.000000" stroke="none" 
	d="
M198.415314,144.778061 
	C197.099274,145.936478 195.664093,146.805328 194.069855,147.957367 
	C192.543930,146.577316 191.177032,144.914108 189.655792,142.981979 
	C190.813736,141.618073 192.126007,140.523071 193.729446,139.218445 
	C195.445801,140.835388 196.870987,142.661942 198.415314,144.778061 
z"/>
<path fill="#A0E1EA" opacity="1.000000" stroke="none" 
	d="
M317.209900,313.119598 
	C315.769440,314.290863 314.242676,315.163940 312.280640,316.059509 
	C310.842804,314.638641 309.840271,313.195282 309.150360,311.390503 
	C311.050629,310.316193 312.638245,309.603271 314.225830,308.890320 
	C315.191772,310.200684 316.157684,311.511047 317.209900,313.119598 
z"/>
<path fill="#84D5E1" opacity="1.000000" stroke="none" 
	d="
M314.199890,308.531189 
	C312.638245,309.603271 311.050629,310.316193 309.078247,311.057739 
	C307.849579,309.889679 307.005676,308.693054 306.105164,307.179810 
	C307.651398,305.683563 309.254242,304.503967 310.996765,302.985870 
	C312.148926,304.488922 313.161438,306.330475 314.199890,308.531189 
z"/>
<path fill="#52C4D3" opacity="1.000000" stroke="none" 
	d="
M435.091614,327.284119 
	C435.515045,325.315948 436.204712,323.556030 436.922516,321.471924 
	C438.633636,321.971832 440.316620,322.795898 442.031403,323.635498 
	C440.962860,327.819153 439.188812,329.609436 435.091614,327.284119 
z"/>
<path fill="#D5D6D7" opacity="1.000000" stroke="none" 
	d="
M240.259125,199.806030 
	C239.870346,202.239151 239.466568,204.481750 238.674454,206.839447 
	C236.907700,205.143723 235.529266,203.332901 234.070648,201.185699 
	C233.924072,196.235474 237.147858,199.644836 239.070435,198.905518 
	C239.722641,199.128082 239.983398,199.371796 240.259125,199.806030 
z"/>
<path fill="#84D5E1" opacity="1.000000" stroke="none" 
	d="
M321.060974,287.379150 
	C319.979309,288.886230 318.765411,290.126953 317.312561,291.613586 
	C316.110260,291.025391 315.146881,290.191254 313.911743,289.121826 
	C315.299103,287.584198 316.540710,286.208099 318.024841,284.563232 
	C319.074646,285.484955 320.001678,286.298920 321.060974,287.379150 
z"/>
<path fill="#7F7E7D" opacity="1.000000" stroke="none" 
	d="
M458.268829,122.231354 
	C459.460449,122.959091 460.615417,124.052658 461.883362,125.417236 
	C459.862762,127.287346 457.729248,128.886444 455.289001,130.587677 
	C454.435242,129.512680 453.888214,128.335526 453.026306,127.000351 
	C454.551697,125.427292 456.391968,124.012245 458.268829,122.231354 
z"/>
<path fill="#D5D6D7" opacity="1.000000" stroke="none" 
	d="
M327.348358,301.635925 
	C328.145050,300.025665 329.102386,298.697784 330.089874,296.930420 
	C331.348083,297.751160 332.576141,299.011444 333.915344,300.581757 
	C333.348511,302.260010 332.670563,303.628204 331.607361,305.139191 
	C329.984436,304.160767 328.746735,303.039520 327.348358,301.635925 
z"/>
<path fill="#D5D6D7" opacity="1.000000" stroke="none" 
	d="
M246.910522,217.704330 
	C247.317108,215.302200 247.787949,213.189697 248.404755,210.624115 
	C250.000275,211.887375 251.449799,213.603683 252.982025,215.645966 
	C251.727997,217.133667 250.391266,218.295410 248.994843,219.801056 
	C248.281677,219.427979 247.628235,218.710968 246.910522,217.704330 
z"/>
<path fill="#838282" opacity="1.000000" stroke="none" 
	d="
M268.852631,217.499054 
	C270.341675,216.386292 271.853149,215.691589 273.732330,214.986664 
	C274.171539,216.119705 274.243011,217.262985 274.314514,218.406265 
	C272.501343,218.243210 270.688202,218.080154 268.852631,217.499054 
z"/>
<path fill="#61CEDC" opacity="1.000000" stroke="none" 
	d="
M356.815735,236.222839 
	C359.899902,234.862946 363.354034,233.479156 367.248596,232.138275 
	C364.187927,233.520432 360.686829,234.859695 356.815735,236.222839 
z"/>
<path fill="#7F7E7D" opacity="1.000000" stroke="none" 
	d="
M237.031952,81.653915 
	C236.339478,82.870300 235.712051,83.723190 234.473145,85.407326 
	C234.248749,83.149971 234.114105,81.795479 233.962631,80.097351 
	C234.996201,80.265945 236.046600,80.778175 237.031952,81.653915 
z"/>
<path fill="#7F7E7D" opacity="1.000000" stroke="none" 
	d="
M230.787094,228.912506 
	C230.660690,229.615402 230.349350,230.087250 230.037994,230.559082 
	C229.688828,229.956436 229.339661,229.353790 228.975723,228.434326 
	C229.508011,228.305481 230.055069,228.493469 230.787094,228.912506 
z"/>
<path fill="#52C4D3" opacity="1.000000" stroke="none" 
	d="
M329.318970,246.034760 
	C329.764893,245.669388 330.538483,245.324402 331.649719,244.987701 
	C331.207092,245.349045 330.426910,245.702103 329.318970,246.034760 
z"/>
<path fill="#52C4D3" opacity="1.000000" stroke="none" 
	d="
M332.343872,245.009674 
	C332.599426,244.692871 333.197845,244.393234 334.151123,244.124237 
	C333.899567,244.445511 333.293152,244.736160 332.343872,245.009674 
z"/>
<path fill="#989795" opacity="1.000000" stroke="none" 
	d="
M207.039276,467.397980 
	C207.618729,467.254181 208.220734,467.505676 209.003281,468.046844 
	C208.476486,468.155457 207.769150,467.974365 207.039276,467.397980 
z"/>
<path fill="#C6E4EB" opacity="1.000000" stroke="none" 
	d="
M360.627960,398.449249 
	C360.872223,398.281891 361.294830,398.405853 361.825867,398.848511 
	C361.558289,399.024994 361.182312,398.882782 360.627960,398.449249 
z"/>
<path fill="#84D5E1" opacity="1.000000" stroke="none" 
	d="
M189.016891,142.030350 
	C189.188416,141.953278 189.363953,142.019470 189.396790,142.212997 
	C189.254089,142.340347 189.020905,142.173615 189.016891,142.030350 
z"/>
<path fill="#838282" opacity="1.000000" stroke="none" 
	d="
M154.052795,357.981323 
	C154.069519,357.977509 153.915344,358.031006 153.969269,358.019470 
	C154.023209,358.007965 154.036072,357.985107 154.052795,357.981323 
z"/>
<path fill="#A0E1EA" opacity="1.000000" stroke="none" 
	d="
M429.541199,323.463501 
	C429.570831,323.512146 429.511566,323.414856 429.541199,323.463501 
z"/>
</svg>